<mxfile host="app.diagrams.net" modified="2023-11-10T09:36:57.044Z" agent="Mozilla/5.0 (Macintosh; Intel Mac OS X 10_15_7) AppleWebKit/537.36 (KHTML, like Gecko) Chrome/119.0.0.0 Safari/537.36" etag="_eATvoS-yc_BpF9WdM4c" version="22.1.0" type="github">
  <diagram name="第 1 页" id="_jOSmFdjhyRgzKq92TkV">
    <mxGraphModel dx="1674" dy="786" grid="1" gridSize="10" guides="1" tooltips="1" connect="1" arrows="1" fold="1" page="1" pageScale="1" pageWidth="827" pageHeight="1169" math="0" shadow="0">
      <root>
        <mxCell id="0" />
        <mxCell id="1" parent="0" />
        <mxCell id="CCGA3HVNWfyB2VTi8GiN-1" value="" style="shape=hexagon;perimeter=hexagonPerimeter2;whiteSpace=wrap;html=1;fixedSize=1;" vertex="1" parent="1">
          <mxGeometry x="170" y="120" width="90" height="80" as="geometry" />
        </mxCell>
        <mxCell id="CCGA3HVNWfyB2VTi8GiN-2" value="" style="shape=hexagon;perimeter=hexagonPerimeter2;whiteSpace=wrap;html=1;fixedSize=1;" vertex="1" parent="1">
          <mxGeometry x="180" y="130" width="90" height="80" as="geometry" />
        </mxCell>
        <mxCell id="CCGA3HVNWfyB2VTi8GiN-3" value="" style="shape=hexagon;perimeter=hexagonPerimeter2;whiteSpace=wrap;html=1;fixedSize=1;" vertex="1" parent="1">
          <mxGeometry x="190" y="140" width="90" height="80" as="geometry" />
        </mxCell>
        <mxCell id="CCGA3HVNWfyB2VTi8GiN-4" value="" style="shape=hexagon;perimeter=hexagonPerimeter2;whiteSpace=wrap;html=1;fixedSize=1;" vertex="1" parent="1">
          <mxGeometry x="200" y="150" width="90" height="80" as="geometry" />
        </mxCell>
        <mxCell id="CCGA3HVNWfyB2VTi8GiN-6" value="" style="shape=hexagon;perimeter=hexagonPerimeter2;whiteSpace=wrap;html=1;fixedSize=1;size=20;" vertex="1" parent="1">
          <mxGeometry x="200" y="350" width="90" height="80" as="geometry" />
        </mxCell>
      </root>
    </mxGraphModel>
  </diagram>
</mxfile>
